<?xml version="1.0" encoding="utf-8"?>
<!-- Generator: Adobe Illustrator 26.0.3, SVG Export Plug-In . SVG Version: 6.00 Build 0)  -->
<svg version="1.0" id="Layer_1" xmlns="http://www.w3.org/2000/svg" xmlns:xlink="http://www.w3.org/1999/xlink" x="0px" y="0px"
	 viewBox="0 0 874 595.4" style="enable-background:new 0 0 874 595.4;" xml:space="preserve">
<style type="text/css">
	.st0{fill:#0FC862;}
	.st1{fill:#47C97C;}
	.st2{fill:#42C778;}
	.st3{fill:#17AF54;}
	.st4{fill:#FAFEFC;}
	.st5{fill:#FAFEFB;}
	.st6{fill:#F9FDFC;}
</style>
<path class="st0" d="M557.9,291.2l-0.2-0.4c-0.2-1.9-1.8-4.3-2.6-3.8c-1.3,0.9-1.8,2.4-1.4,3.9c0.3,1.6,0.4,3.3,0.3,4.9
	c0,13,0,25.9,0,38.9c0,1.1-0.3,2.4,0.7,3.4v0.9c-2.1,2.9-5,3.6-8.4,3.4c-1.6-0.1-3.1-0.1-4.7,0c-3,0.1-5.8-0.1-7.6-2.9
	c0-0.8-0.1-1.6-0.1-2.3c0-26.7,0-53.4,0-80.1c0-0.8,0.1-1.6,0.1-2.4c0.8-0.5,1.2-1.4,1.1-2.4c0.2-0.4,0.6-0.7,1.1-0.8
	c4,0.4,8,0.4,11.9,0.1c3.3-0.2,6.7,0.7,9.5,2.5c0.1,0.1,0.2,0.2,0.2,0.4c-0.3,1.2,0.2,2.4,1.3,3c-0.6,1.7,0.7,2,1.8,2.4
	c0.1,0.2,0.2,0.4,0.4,0.6c-0.1,1.1,0.1,2.2,0.7,3.1c2.1,4.4,5.6,7.8,7.4,12.3c0.7,1.6,1,3.6,3.4,3.8c0.1,0,0.2,0.1,0.2,0.2
	c-0.5,3,1.8,4.3,3.6,5.9c0.1,0.1,0.2,0.2,0.2,0.3c0,0.9,0,1.7,0.1,2.6c0.3,1.5,1.6,2.1,2.9,2.4c1.1,0.2,1.5-0.6,1.6-1.5
	c1.1-0.3,1.9-1.2,2.2-2.2c1.6-3.8,3.6-7.3,6.1-10.6c1.4-1.9,2.4-4.1,2.7-6.4l0.5-0.9c0.9-0.3,1.4-1.1,1.2-2l0,0c2-1,2.5-2.8,2.8-4.8
	c0-0.1,0.1-0.2,0.2-0.3c1-0.2,1.2-0.9,1.1-1.8l0.1-0.1c2.2-1.6,3.1-4.3,4.8-6.3c1-1.3,2.5-2.2,4.2-2.2c4.4,0,8.8-0.1,13.1,0
	c1.8,0.1,3.7,0.7,3.9,3.1c0.1,0.6,0.6,0.6,1.1,0.7c0.1,1,0.2,2,0.2,3c0,26.2,0,52.5,0,78.7c0,0.9-0.1,1.7-0.2,2.6
	c-2.1,0.3-3.4,2.1-5.3,2.9c-3.1,0.2-6.3,0.2-9.4,0c-0.6-2-1.8-0.6-2.8-0.5c-2.2-1.3-2.4-3.5-2.4-5.7c0-14.6,0-29.2,0-43.8
	c0-1.1,0.3-2.4-0.8-3.3c0-0.5,0-1,0-1.4c0.4-1.1-0.3-1.6-0.9-0.9c-1.1,1.4-2.8,2.2-3.4,4.1c-0.9,2.9-2.6,5.3-4.1,7.9
	c-2,3.5-4.9,6.5-5.8,10.7l0,0c-1.4,0.1-2,1.1-2.3,2.3c-0.2,0.7-0.3,1.5-0.9,1.9c-1.4,1-2.4,2.4-2.9,4.1c-0.9,2.5-5.7,4.3-7,2.5
	s-3.1-3.2-4.3-5.1c-1.9-2.8-2.6-6.4-4.7-8.9c-3.3-3.9-5-8.6-7.5-12.9C560.1,292.4,559.1,291.5,557.9,291.2z"/>
<path class="st0" d="M353.8,252.9c0-0.1,0.1-0.2,0.2-0.2c4.9-1.7,9.9-0.9,14.9-0.8c1.8,0,3.4,1,4.2,2.6c0.6,1.5,1.9,2.6,3.5,3
	c0.1,0.1,0.2,0.2,0.1,0.3c0.3,1.4,1.1,2.6,2.4,3.4l0.4,0.5c0.1,0.5,0.4,0.9,0.9,1c0.1,0.1,0.2,0.2,0.2,0.3c0,1,0.3,1.8,1.5,1.9
	c-0.3,1.8,1.5,4.1,3.8,5.1l0,0c0.8,3.2,2.8,5.4,5.3,7.3l0.6,0.8c0.3,1.9,1.5,3.5,3.2,4.4l0,0c0.4,2,1.7,3.7,3.5,4.6
	c0.5,0.2,0.8,0.7,0.9,1.2l0.5,0.7v0l0.5,0.6l1.3,1.9c1,2.9,2.2,5.6,5.2,7l0.5,0.8l0.5,0.6l0,0c0.1,0.7,0.3,1.3,0.5,2
	c0.6,1.4,1.2,3.1,3,2.8s1.1-2.2,1.1-3.4c0.1-14,0.1-27.9,0-41.8c0-3.8,0.7-6.8,4.8-8h1.4c2.3,0.6,4.8,0.6,7.1,0
	c1.4,0,2.8-0.3,4.2,0.3c1.9,1.6,2.5,3.6,2.5,6c-0.1,25-0.1,50,0,75c0,3.7,0.1,7.2-2.9,9.9c-4.8,0.3-9.7,0.3-14.5,0
	c-0.8-1-1.9-1.9-3-2.5l0,0c-0.4-2.9-2.3-5.5-5-6.7c-0.1-0.1-0.2-0.2-0.2-0.3l-0.5-0.6l0,0c0-0.6-0.4-1.2-1-1.4l0,0
	c0.1-0.7-0.5-1.4-1.2-1.6c-0.1-0.1-0.2-0.2-0.2-0.3c0-0.9-0.5-1.7-1.4-2l0,0c-1-3-2.5-5.6-5.4-7.2c-0.1-0.1-0.2-0.2-0.2-0.3
	c-0.1-1.3-0.9-2.5-2.2-3c-0.1-0.1-0.2-0.2-0.2-0.3c-0.1-1.6-1.2-2.9-2.6-3.5c-0.1-0.1-0.2-0.2-0.2-0.3c0.1-1.8-1-2.7-2.5-3.3l0,0
	c0-1-0.3-1.7-1.4-1.9l0.1-0.1l-0.1,0.1c-0.4-2.1-1.7-3.9-3.6-4.9c-0.1-0.1-0.1-0.2-0.1-0.3c-0.7-2.2-2.1-4.1-4.1-5.4
	c-0.1-0.1-0.2-0.2-0.2-0.3c-0.3-2.8-2-4.7-3.8-6.6c-0.4-0.6-1.2-0.9-1.9-0.7c-0.6,0.2-0.6,0.7-0.2,1.1v0.9c-0.8,1.1-0.5,2.4-0.5,3.7
	c0,13.9,0,27.8,0,41.6c0,2.5-0.8,4.2-3.2,5.1c-0.4,0.2-0.8,0.5-1.1,0.8c-3.7,0.2-7.5,0.2-11.2,0c-4.2-1.3-4.4-4.4-4.4-8.1
	c0.1-24.8,0-49.6,0.1-74.4C353.4,257.6,353.6,255.2,353.8,252.9z"/>
<path class="st0" d="M783.9,296c0.1,0,0.2,0.1,0.2,0.2c0.3,2.6,1.9,4.8,4.3,5.8l0.4,0.5c0,0.7,0.5,1.4,1.3,1.5l0.1,0.1
	c1.4,1.4,1.2-0.1,1.4-0.8c0.6-2.4,0-4.8,0-7.2c0-11.6,0-23.2,0-34.8c0-3.7-0.8-7.7,3.8-9.6h3.8c1.4,1.5,2.8,1.2,4.3,0h3.3
	c5.1,1.8,4.7,6,4.7,10.2c0,24.4,0,48.8,0,73.2c0,5.2,0.1,5.8-4.9,6.7c-4.6,0.8-9.6,2.1-13.9-1.4c-0.6-0.3-1.2-0.5-1.8-0.5l-0.1-0.1
	c0-0.6-0.4-1.1-1-1.3c-0.1,0-0.2-0.1-0.2-0.2c-0.1-0.8-0.4-1.5-0.8-2.2c-1.6-3.1-3.6-6-5.9-8.6c-1.7-2.1-2.9-4.6-4.7-6.6
	c-2-2.3-4.1-4.4-5.5-7.1c-0.9-1.8-1.7-3.8-4.2-4l-0.7-0.8c0.7-1.3-0.2-1.4-1.1-1.5l-0.6-0.8c-1.4-2.6-0.8-6.4-4.5-7.7
	c-0.7-0.2-1-1-1.1-1.7c-0.2-1.6-1.6-2.7-3.2-2.5c-0.1,0-0.2-0.1-0.2-0.2c0.3-2.1-0.3-3.4-2.4-4.5c-1.5-0.7-1.8-0.6-2.2,0.9
	c-0.7,2.4,0.1,4.7,0.1,7c0,12.3,0,24.7,0,37c0,1.3-0.1,2.5-0.4,3.7c-0.3,1.6-1.6,2.8-3.2,3.1c-4,0.6-8.1,0.7-12.1,0.5
	c-1.9-0.1-3.4-1.4-3.8-3.3c-0.2-0.8-0.3-1.7-0.3-2.6c0.5-26.9-1-53.8,0.7-80.7c0.2-2.8,0.9-3.6,3.7-3.5c1.9,0.1,3.8,0.5,5.6,0.4
	c3.6-0.1,7.2-0.9,10.2,1.9c0.1,0.1,0.3,0,0.5,0.1c0.2,0.3,0.4,0.6,0.5,0.9c-0.1,0.7,0.4,1.3,1.1,1.3l0,0c0.4,2.9,2.7,4.5,4.3,6.7
	c0.1,0.1,0.4,0.1,0.7,0.1c0.1,0,0.1,0.1,0.1,0.2l0.5,0.6l0,0c0,1.4,0.9,2.6,2.2,3l0.6,0.8c0,0.5,0.3,0.9,0.8,1.1
	c0.1,0,0.2,0.1,0.2,0.2c0,0.5,0.3,1,0.8,1.2c0.1,0,0.2,0.1,0.2,0.2c-0.2,3.5,0.6,4.5,3.7,5l0,0c0,2.1,0.4,3.9,3,4v0
	c1.1,3.1,2.2,6.2,5.6,7.5v0c-0.3,0.6-0.8,1.6-0.1,2c1.8,1.1,2.4,3,3.5,4.6c0.5,0.8,1.4,1.2,2.2,0.9v0.1
	C783.1,295.6,783.5,295.9,783.9,296z"/>
<path class="st0" d="M445.9,296.8c0-13.4,0-26.9,0-40.3c0-4.2,1.2-5.3,5.3-5.3c16.9,0,33.8,0,50.7,0c4.2,0,5.3,1.1,5.4,5.3
	c0.1,3.6,0,7.2,0,10.8s-1.2,4.8-4.6,4.8c-10.9,0-21.8,0.1-32.8,0c-2.4,0-3.2,0.6-3.1,3c0.2,3,0.2,6,0,9c-0.1,1.9,0.6,2.4,2.5,2.4
	c10.9-0.1,21.8,0,32.8,0c4.1,0,5.2,1.2,5.2,5.2c0,3.6,0,7.2,0,10.8s-1.2,4.9-5,4.9c-10.8,0-21.7,0.1-32.5,0c-2.3,0-3.1,0.7-2.9,2.9
	c0.2,3,0.1,6,0,9c-0.1,2,0.6,2.5,2.6,2.5c10.9-0.1,21.8,0,32.8,0c3.9,0,5,1.1,5.1,5c0,3.7,0,7.4,0,11.1c0,3.5-1.2,4.8-4.6,4.8
	c-17.3,0-34.7,0-52.1,0c-3.4,0-4.7-1.4-4.7-4.8c0-13.7,0-27.3,0-41L445.9,296.8z"/>
<path class="st0" d="M687.7,251.1c1.5,1,2.5,2.4,3,4.1c8.3,23.3,16.6,46.6,25,69.9c1.4,3.9,2.8,7.9,4.1,11.8
	c1.3,3.7-0.2,5.9-4.1,5.9c-3.6,0-7.2,0-10.8,0s-4.2-0.5-5.3-3.8s-2.4-6.5-3.4-9.8c-0.5-1.6-1.2-2.3-3-2.3c-9.5,0.1-19,0.1-28.5,0
	c-1.9,0-2.8,0.7-3.3,2.5c-1.1,3.4-2.4,6.8-3.6,10.2c-0.5,2-2.4,3.3-4.4,3.1c-3.8-0.1-7.7,0-11.5,0s-5.4-2.2-4-5.9
	c8.6-24.1,17.2-48.2,25.8-72.4c1.1-3.1,2.2-6.2,3.2-9.4c0.4-1.8,1.6-3.3,3.2-4.1L687.7,251.1z M678.7,281.5
	c-0.3,0.4-0.6,0.5-0.6,0.7c-2.6,7.3-5.2,14.6-7.8,21.9c-0.5,1.5,0.1,1.9,1.5,1.9c4.5,0,9.1-0.1,13.6,0c1.9,0,2.1-0.7,1.5-2.3
	c-1.9-5.1-3.5-10.2-5.5-15.3C680.6,286.2,680.1,283.7,678.7,281.5L678.7,281.5z"/>
<path class="st0" d="M245.7,296.9c0-13,0-26.1,0-39.1c0-5.7,0.9-6.6,6.5-6.6c3.1,0,6.1,0,9.2,0c4,0,5.2,1.1,5.2,5.2
	c0,16.5,0,33,0,49.5c0,4.4,0.1,8.8-0.1,13.2c-0.1,2.1,0.7,2.7,2.7,2.7c10.4-0.1,20.7-0.1,31.1-0.1c1,0,1.9,0,2.8,0.1
	c2.5,0.2,3.8,1.4,3.8,3.9c0.1,4.3,0.1,8.6,0,13c-0.1,2.7-1.6,4-4.8,4c-15.1,0-30.2,0-45.3,0c-2,0-4.1,0-6.1,0c-4,0-5.2-1.2-5.3-5.2
	C245.7,324,245.7,310.5,245.7,296.9L245.7,296.9z"/>
<path class="st0" d="M318.7,297c0-13.3,0-26.7,0-40c0-4.7,1.1-5.8,5.9-5.8c3.1,0,6.3,0,9.4,0c4.5,0,5.7,1.2,5.7,5.7
	c0,22.5,0,45.1,0,67.6c0,4.4,0,8.8,0,13.2c0,3.6-1.2,4.8-4.8,4.9c-3.8,0-7.5,0-11.3,0c-3.6,0-4.8-1.3-4.8-4.8
	C318.8,324.2,318.8,310.6,318.7,297L318.7,297z"/>
<path class="st0" d="M753.2,254.5c-0.2,0-0.4,0-0.5-0.1c-3-2.8-6.6-2-10.2-1.9c-1.9,0.1-3.8-0.3-5.6-0.4c-2.8-0.1-3.5,0.6-3.7,3.5
	c-1.7,26.9-0.3,53.8-0.7,80.7c0,0.9,0.1,1.7,0.3,2.6c0.4,1.8,2,3.2,3.8,3.3c4,0.2,8.1,0,12.1-0.5c1.6-0.3,2.9-1.5,3.2-3.1
	c0.3-1.2,0.4-2.5,0.4-3.7c0-12.3,0-24.7,0-37c0-2.3-0.8-4.6-0.1-7c0.4-1.5,0.8-1.6,2.2-0.9c2.1,1,2.7,2.4,2.4,4.5
	c-0.8-1-1.7-2-2.6-3c-0.7-0.8-1.2-0.7-1.3,0.4s-0.1,2-0.1,3.1v42.1c0,5-0.9,5.9-5.8,6c-3.4,0-6.8,0-10.1,0c-3.8,0-5.1-1.2-5.1-5.1
	c0-23.2,0-46.5,0-69.7c0-3.9,0.1-7.9,0-11.8c-0.2-1.8,0.6-3.6,2-4.8l16.5-0.1C751.7,252.1,752.7,253.2,753.2,254.5z"/>
<path class="st0" d="M790.7,339.8c0.6,0.1,1.2,0.2,1.8,0.5c4.4,3.4,9.4,2.2,13.9,1.4c5-0.9,4.9-1.5,4.9-6.7c0-24.4,0-48.8,0-73.2
	c0-4.1,0.3-8.4-4.7-10.2l2.8-0.2c1.9,1.1,2.6,2.7,2.6,4.9c0,27.3,0,54.7,0,82v0.2c-0.1,2.6-1.5,4.1-4.1,4.2c-4.3,0.1-8.6,0.1-13,0.1
	C792.9,342.9,791.2,341.7,790.7,339.8z"/>
<path class="st0" d="M429.3,342.5c3-2.7,2.9-6.2,2.9-9.9c-0.1-25-0.1-50,0-75.1c0-2.5-0.5-4.5-2.5-6c2,0.2,2.9,1.4,3,3.3
	s0.1,3.5,0.1,5.2c0,25.8,0,51.7,0,77.5C432.8,341,432,342.1,429.3,342.5z"/>
<path class="st0" d="M353.8,252.9c-0.1,2.3-0.3,4.7-0.3,7c0,24.8,0,49.6-0.1,74.4c0,3.7,0.2,6.9,4.4,8.1c-3.2,0.3-4.8-1-4.9-4.1
	c-0.1-1.6,0-3.3,0-4.9c0-25.6,0-51.2,0-76.9C352.8,255.3,352.5,253.9,353.8,252.9z"/>
<path class="st0" d="M557.9,291.2c1.2,0.3,2.2,1.1,2.7,2.3c2.5,4.3,4.2,9,7.5,12.9c2.1,2.5,2.8,6.1,4.7,8.9c1.2,1.9,3,3.3,4.3,5.1
	s6.1,0.1,7-2.5c0.5-1.7,1.5-3.1,2.9-4.1c0.6-0.4,0.7-1.2,0.9-1.9c0.3-1.2,0.9-2.2,2.3-2.3c-1.7,3.6-3.7,7.1-6,10.3
	c-1.9,2.8-7.8,2.5-9.5-0.3c-5.7-9.3-11.2-18.7-16.8-28.1C557.9,291.6,557.9,291.4,557.9,291.2z"/>
<path class="st0" d="M417.1,251.3c-4.1,1.2-4.8,4.2-4.8,8c0.1,14,0.1,27.9,0,41.8c0,1.2,0.7,3.1-1.1,3.4s-2.4-1.5-3-2.8
	c-0.2-0.7-0.4-1.3-0.5-2c0.8,1,1.6,1.9,2.4,2.9c0.2,0.3,0.5,0.6,1,0.5s0.4-0.6,0.5-1c0.1-0.9,0.1-1.9,0.1-2.8c0-14.3,0-28.6,0-42.9
	C411.6,252.4,413.3,250.9,417.1,251.3z"/>
<path class="st0" d="M795.2,251.7c-4.5,1.9-3.8,5.9-3.8,9.6c0,11.6,0,23.2,0,34.8c0,2.4,0.6,4.8,0,7.2c-0.2,0.7,0,2.2-1.4,0.8
	c1-0.9,0.8-2,0.8-3.1c0-14.5,0-29,0-43.5c-0.1-1.6,0.1-3.3,0.7-4.8l2.2-1.5v0.1L795.2,251.7z"/>
<path class="st0" d="M554.6,338c-1-1-0.7-2.2-0.7-3.4c0-13,0-25.9,0-38.9c0.1-1.6,0-3.3-0.3-4.9c-0.4-1.5,0.2-3.1,1.4-3.9
	c0.8-0.5,2.4,2,2.6,3.8c-1-0.5-1.2-2.5-2.2-2.1c-1.2,0.5-0.7,2.2-0.7,3.4c0,14.4,0,28.7,0,43.1C554.7,336.2,554.6,337.1,554.6,338z"
	/>
<path class="st0" d="M604.4,289.4c1.1,0.9,0.8,2.2,0.8,3.3c0,14.6,0,29.2,0,43.8c0,2.2,0.2,4.4,2.4,5.7c0,0.2,0,0.3,0,0.5
	c-2.5-0.6-3.3-1.6-3.3-4.5c0-9.3,0-18.7,0-28C604.3,303.2,604.3,296.3,604.4,289.4z"/>
<path class="st0" d="M368.9,342.5c0.3-0.3,0.7-0.6,1.1-0.8c2.4-0.9,3.2-2.6,3.2-5.1c-0.1-13.9,0-27.8,0-41.6c0-1.2-0.2-2.5,0.5-3.7
	c0.1,1.5,0.2,3,0.2,4.4c0,13.9,0,27.9,0,41.8C374,341.5,372.5,342.8,368.9,342.5z"/>
<path class="st0" d="M768.4,309.7c2.4,0.3,3.2,2.3,4.2,4c1.4,2.7,3.5,4.9,5.5,7.1c1.8,2,3,4.5,4.7,6.6c2.3,2.6,4.3,5.5,5.9,8.6
	c0.4,0.6,0.7,1.4,0.8,2.2c-4.6-5.5-8.7-11.3-12.9-17.1C773.8,317.4,770.7,313.8,768.4,309.7z"/>
<path class="st0" d="M625.2,255.5c-0.5-0.1-1-0.1-1.1-0.7c-0.2-2.4-2.1-3-3.9-3.1c-4.4-0.2-8.8-0.1-13.1,0c-1.7,0-3.2,0.9-4.2,2.2
	c-1.7,2-2.6,4.7-4.8,6.3c1.9-3.2,3-6.9,6.2-9.1l18.6-0.1C624.2,252.2,625.9,253.2,625.2,255.5z"/>
<path class="st0" d="M590.2,309.7c0.9-4.1,3.8-7.1,5.8-10.7c1.5-2.6,3.1-5.1,4.1-7.9c0.6-1.8,2.3-2.7,3.4-4.1
	c0.6-0.8,1.3-0.2,0.9,0.9c-1.1-0.1-1.4,0.9-1.8,1.6c-3.7,6.2-7.5,12.5-11.2,18.7C591,308.8,590.6,309.3,590.2,309.7z"/>
<path class="st0" d="M592,270.1c-0.3,2.3-1.3,4.6-2.7,6.4c-2.4,3.3-4.5,6.9-6.1,10.6c-0.2,1.1-1.1,2-2.2,2.2h-0.9L592,270.1z"/>
<path class="st0" d="M572.6,279.5c-2.3-0.2-2.7-2.2-3.4-3.8c-1.8-4.5-5.4-8-7.4-12.3c-0.6-0.9-0.8-2-0.7-3.1
	c3.6,4.8,6.1,10.1,9.3,15.1C571.3,276.7,571.9,278.2,572.6,279.5z"/>
<path class="st0" d="M533.8,339.3c1.8,2.8,4.7,3,7.6,2.9c1.6-0.1,3.1-0.1,4.7,0c3.4,0.2,6.3-0.5,8.4-3.4c-0.1,2.6-0.9,3.8-3.3,3.9
	c-4.8,0.2-9.6,0.1-14.3,0C535,342.7,533.8,341.4,533.8,339.3z"/>
<path class="st0" d="M557.5,254.1c-2.8-1.8-6.1-2.6-9.5-2.5c-4,0.3-8,0.2-11.9-0.1c1.3-0.7,2.8-0.4,4.1-0.4c4.3,0,8.6,0,12.9,0
	C555.2,251.1,556.9,251.8,557.5,254.1z"/>
<path class="st0" d="M757.1,294.6c1.6-0.2,3,0.9,3.2,2.5c0.2,0.7,0.5,1.5,1.1,1.7c3.7,1.3,3.1,5.1,4.5,7.7
	C762.7,302.7,759.8,298.8,757.1,294.6z"/>
<path class="st0" d="M376.4,257.4c-1.5-0.4-2.8-1.5-3.5-3c-0.8-1.6-2.4-2.6-4.2-2.6c-5-0.1-10-0.9-14.9,0.8c0.7-1.5,2.1-1.5,3.4-1.5
	c4,0,8,0,12,0c1.8-0.1,3.4,0.8,4.4,2.2C374.5,254.7,375.9,255.7,376.4,257.4z"/>
<path class="st0" d="M687.7,251.1h-17.9c0.5-0.6,1.3-0.9,2.1-0.8h13.7C686.4,250.2,687.2,250.5,687.7,251.1z"/>
<path class="st0" d="M373.8,290.4c-0.3-0.5-0.4-0.9,0.2-1.1c0.7-0.1,1.4,0.1,1.9,0.7c1.8,1.9,3.5,3.9,3.8,6.6
	c-1.7-1.3-2.5-3.3-3.9-4.9C375.2,291.1,374.9,290.2,373.8,290.4z"/>
<path class="st0" d="M783.1,294.9c-0.9,0.2-1.8-0.2-2.2-0.9c-1.1-1.6-1.6-3.5-3.5-4.6c-0.6-0.4-0.1-1.3,0.1-2
	C779.7,289.7,781.5,292.2,783.1,294.9z"/>
<path class="st0" d="M795.2,251.7l-1.6-0.3c1-0.6,2.2-0.8,3.4-0.7h9.5c1-0.2,2,0.1,2.8,0.8l-2.8,0.2h-3.3c-1.4-0.3-2.9-0.3-4.3,0
	L795.2,251.7z"/>
<path class="st0" d="M777.5,287.3c-3.4-1.3-4.5-4.4-5.6-7.5C774,282.1,775.9,284.6,777.5,287.3z"/>
<path class="st0" d="M580.2,289.4h0.9c-0.1,1-0.5,1.8-1.6,1.5c-1.3-0.3-2.6-0.9-2.9-2.4c-0.1-0.9-0.1-1.7-0.1-2.6
	c0.5,0.7,1,1.4,1.4,2.1C578.4,288.9,578.8,290.1,580.2,289.4z"/>
<path class="st0" d="M397,320c2.9,1.6,4.4,4.2,5.4,7.2C400.3,325.1,398.5,322.7,397,320z"/>
<path class="st0" d="M406.8,298.4c-3-1.4-4.3-4.1-5.2-7C403.6,293.4,405.3,295.8,406.8,298.4z"/>
<path class="st0" d="M768.9,275.7c-3.1-0.4-3.9-1.5-3.7-5C766.7,272.2,768,273.9,768.9,275.7z"/>
<path class="st0" d="M406.8,333.2c2.7,1.3,4.6,3.8,5,6.7C409.8,338,408.2,335.7,406.8,333.2z"/>
<path class="st0" d="M391.1,277.2c-2.5-1.9-4.6-4.1-5.3-7.3C387.8,272.1,389.6,274.5,391.1,277.2z"/>
<path class="st0" d="M759.8,263.5c-0.2,0-0.6,0-0.7-0.1c-1.6-2.1-3.9-3.8-4.3-6.7C756.8,258.8,758.4,261.1,759.8,263.5z"/>
<path class="st0" d="M622.9,250.9l-18.6,0.1c0.6-0.5,1.4-0.8,2.1-0.8h14.2C621.4,250.3,622.2,250.5,622.9,250.9z"/>
<path class="st0" d="M788.3,302.1c-2.4-1-4-3.3-4.3-5.8C785.8,297.9,787.3,299.9,788.3,302.1z"/>
<path class="st0" d="M750.5,251.4l-16.5,0.1c0.6-0.6,1.3-0.9,2.1-0.8l13.1,0C749.7,250.6,750.3,250.9,750.5,251.4z"/>
<path class="st0" d="M385.7,269.8c-2.4-0.9-4.2-3.3-3.8-5.1C383.4,266.3,384.7,268,385.7,269.8z"/>
<path class="st0" d="M576.4,285.7c-1.8-1.6-4.1-2.9-3.6-5.9C574.2,281.6,575.4,283.6,576.4,285.7z"/>
<path class="st0" d="M619.8,342.7c1.9-0.7,3.2-2.5,5.3-2.9c-0.2,1.3-0.7,2.4-2.2,2.4l-0.7,0.4C621.4,343,620.6,343,619.8,342.7z"/>
<path class="st0" d="M379.9,297c2,1.2,3.4,3.2,4.1,5.4C382.3,300.8,380.9,299,379.9,297z"/>
<path class="st0" d="M771.9,279.7c-2.6-0.1-3-1.9-3-4C770.1,276.9,771.1,278.2,771.9,279.7z"/>
<path class="st0" d="M384.1,302.6c1.9,1,3.2,2.8,3.6,4.9C386.2,306.1,385,304.5,384.1,302.6z"/>
<path class="st0" d="M596.7,262.4c-0.3,2-0.8,3.9-2.8,4.8C594.5,265.5,595.5,263.8,596.7,262.4z"/>
<path class="st0" d="M398.4,287c-1.8-0.9-3.1-2.6-3.5-4.6C396.3,283.7,397.5,285.3,398.4,287z"/>
<path class="st0" d="M394.9,282.4c-1.7-0.9-2.9-2.5-3.2-4.4C393,279.2,394.1,280.7,394.9,282.4z"/>
<path class="st0" d="M389.1,309.4c1.4,0.6,2.6,1.5,2.5,3.3C390.4,311.8,389.6,310.7,389.1,309.4z"/>
<path class="st0" d="M391.7,313c1.5,0.5,2.5,1.9,2.6,3.5C393.2,315.5,392.3,314.3,391.7,313z"/>
<path class="st0" d="M559,257.4c-1.1-0.6-1.6-1.8-1.3-3c0.9,0.8,1.5,1.8,1.8,2.9L559,257.4z"/>
<path class="st0" d="M425.6,251.3c-2.3,0.6-4.8,0.6-7.1,0C420.9,251,423.2,251,425.6,251.3z"/>
<path class="st0" d="M394.6,316.7c1.3,0.5,2.1,1.7,2.2,3C395.7,319,395,317.9,394.6,316.7z"/>
<path class="st0" d="M379,261.1c-1.2-0.7-2.1-2-2.4-3.4C377.8,258.6,378.6,259.7,379,261.1z"/>
<path class="st0" d="M411.8,339.9c1.1,0.6,2.2,1.5,3,2.5C413.3,342.4,412.1,341.4,411.8,339.9z"/>
<path class="st0" d="M762.6,267.3c-1.3-0.4-2.2-1.6-2.2-3C761.4,265.1,762.2,266.1,762.6,267.3z"/>
<path class="st0" d="M607.6,342.7c0-0.2,0-0.3,0-0.5c1-0.1,2.2-1.5,2.8,0.5C609.5,342.9,608.5,342.9,607.6,342.7z"/>
<path class="st0" d="M559,257.4h0.5v0.2l0.5,0.8c0.4,0.4,0.7,0.9,0.8,1.4C559.6,259.4,558.3,259.1,559,257.4z"/>
<path class="st0" d="M535,252.2c0.1,0.9-0.3,1.9-1.1,2.4C533.6,253.6,534.1,252.6,535,252.2z"/>
<path class="st0" d="M381.9,264.8c-1.2-0.1-1.5-0.9-1.5-1.9C381.1,263.3,381.6,264,381.9,264.8z"/>
<path class="st0" d="M766.6,307.3c0.8,0.2,1.8,0.3,1.1,1.5C767.1,308.5,766.7,308,766.6,307.3z"/>
<path class="st0" d="M387.7,307.5c1.1,0.2,1.4,0.9,1.4,1.9C388.4,308.9,387.9,308.2,387.7,307.5z"/>
<path class="st0" d="M593.8,267.2c0.1,0.9-0.4,1.7-1.2,2C592.7,268.4,593.2,267.7,593.8,267.2z"/>
<path class="st0" d="M402.4,327.2c0.9,0.3,1.5,1.1,1.4,2C403.1,328.8,402.5,328,402.4,327.2z"/>
<path class="st0" d="M597.9,260.3c0.2,0.9-0.1,1.6-1.1,1.8C597,261.4,597.4,260.8,597.9,260.3z"/>
<path class="st0" d="M790,304c-0.7-0.1-1.3-0.8-1.3-1.5C789.4,302.8,789.8,303.4,790,304z"/>
<path class="st0" d="M793.6,251.3l-2.2,1.5C791.6,251.4,792.5,251.2,793.6,251.3z"/>
<path class="st0" d="M404,329.5c0.7,0.2,1.2,0.8,1.2,1.6C404.6,330.7,404.1,330.2,404,329.5z"/>
<path class="st0" d="M754.8,256.7c-0.7-0.1-1.1-0.7-1.1-1.3C754.3,255.6,754.8,256.1,754.8,256.7z"/>
<path class="st0" d="M405.2,331c0.6,0.2,1,0.8,1,1.4C405.6,332.1,405.2,331.6,405.2,331z"/>
<path class="st0" d="M789.6,338.5c0.6,0.2,1,0.7,1,1.3C790.1,339.5,789.7,339,789.6,338.5z"/>
<path class="st0" d="M380.2,262.6c-0.5-0.1-0.8-0.5-0.9-1C379.9,261.7,380.2,262.1,380.2,262.6z"/>
<path class="st0" d="M783.9,296c-0.5-0.1-0.8-0.6-0.7-1.1C783.6,295.1,783.9,295.5,783.9,296z"/>
<path class="st0" d="M765.1,270.5c-0.5-0.2-0.9-0.6-0.8-1.2C764.7,269.6,765,270,765.1,270.5z"/>
<path class="st0" d="M764.1,269.2c-0.5-0.2-0.8-0.6-0.8-1.1C763.7,268.2,764.1,268.7,764.1,269.2z"/>
<path class="st0" d="M400.2,289.4l-0.5-0.6L400.2,289.4z"/>
<path class="st0" d="M399.7,288.9l-0.5-0.7L399.7,288.9z"/>
<path class="st0" d="M760.5,264.3l-0.5-0.6L760.5,264.3z"/>
<path class="st0" d="M406.2,332.4l0.5,0.6L406.2,332.4z"/>
<path class="st0" d="M407.8,299.7l-0.5-0.6L407.8,299.7z"/>
<path class="st0" d="M560,258.3l-0.5-0.8L560,258.3z"/>
<path class="st0" d="M622.2,342.7l0.7-0.4L622.2,342.7z"/>
<path class="st0" d="M799,251.7c1.4-0.3,2.9-0.3,4.3,0C801.8,252.9,800.4,253.1,799,251.7z"/>
<path class="st0" d="M71,237.8l0.4-0.4c1-0.2,1.8-1,2-2l0.5-0.4l0.3-0.3c0-0.1,0.1-0.2,0.2-0.2c1,0.1,1.6-0.7,2.2-1.1
	c5.4-3.6,11.2-6,17.8-6c25.6,0,51.2,0,76.7,0c6.1,0,12,1.8,17.1,5.1c9.3,5.9,14.1,14.6,15.3,25.5c0,26.5,0,53,0,79.5
	c-0.5,4.6-1.8,9.1-4,13.2c-0.7,1.3-1.9,2.4-1.9,4c0,0.1-0.1,0.2-0.1,0.2c-0.8,0.1-1.2,0.7-1.7,1.3c-6.2,7.5-14.2,11.8-23.9,11.8
	c-26,0.2-52,0.1-77.9,0c-1.7,0.1-3.4-0.1-5.1-0.5c-6.8-1.8-12.9-4.9-17.7-10.2c-0.7-0.8-1-2.1-2.3-2.3l0.1-0.1l-0.1,0.1
	c0.2-1.2-0.9-1.9-1.4-2.7c-3.9-6-4.8-12.8-4.8-19.8c0.1-24.3-0.4-48.6,0.2-72.9c0.2-6.3,2-12.4,5.5-17.7
	C69.2,240.5,71,239.7,71,237.8z M112.5,294c-0.7,0-1-0.6-1.4-1c-4.2-4.1-8.2-8.2-12.4-12.3c-0.8-1-1.7-1.8-2.7-2.5
	c-0.1,0.2-0.1,0.3-0.2,0.5c0,16.5,0,32.9,0,49.4c0.2,3.6,2.8,6.5,6.3,7.2c5,1,8.6-1.6,10.1-7.3l0.7,1.6v-34.1
	C113.1,294.9,112.9,294.3,112.5,294L112.5,294z M95.8,268.2c0,2.3,0.9,4.5,2.6,6c11.2,11.2,22.3,22.4,33.5,33.5
	c1.1,1.1,1.6,0.8,2.5-0.1c4-4,8-8,12.1-12.1c7.2-7.1,14.3-14.3,21.4-21.5c3.2-3.1,3.4-8.2,0.3-11.4c-0.2-0.2-0.4-0.4-0.6-0.6
	c-3.5-3.1-8.2-2.8-11.9,0.9c-7.1,7.1-14.2,14.2-21.3,21.4c-1,1-1.6,1.2-2.6,0c-2-2.2-4.2-4.2-6.3-6.3c-5.1-5.1-10.3-10.3-15.4-15.4
	c-2.7-2.6-5.8-3.4-9.3-1.9C97.7,261.8,95.7,264.9,95.8,268.2z M170.1,278.3c-0.4-0.1-0.6,0.2-0.8,0.5c-4.9,4.9-9.7,9.7-14.6,14.6
	c-0.6,0.6-0.9,1.3-0.8,2.1c0,10.4,0,20.9,0,31.3c-0.1,1.7,0.4,3.3,1.2,4.7c2,3.2,5.9,4.7,9.5,3.6c3.5-1,5.8-4.3,5.7-7.9
	c0-15.9,0-31.7,0-47.6C170.3,279.1,170.4,278.7,170.1,278.3L170.1,278.3z"/>
<path class="st1" d="M203.5,258c-1.3-10.8-6-19.5-15.3-25.5c-5.1-3.3-11-5.1-17.1-5.1c-25.6,0.1-51.1,0-76.7,0
	c-6.6,0-12.4,2.3-17.8,6c-0.7,0.5-1.3,1.2-2.2,1.1c4.1-3.9,9.1-6,14.5-7.2c2.5-0.5,5-0.7,7.5-0.6c24.8,0,49.6,0,74.4,0
	c17.2,0.2,31.5,13.3,33.3,30.4c0,0.3,0,0.7-0.1,1L203.5,258z"/>
<path class="st2" d="M68.8,355c1.3,0.2,1.6,1.5,2.3,2.3c4.8,5.3,10.9,8.4,17.7,10.2c1.7,0.4,3.4,0.5,5.1,0.5c26,0,52,0.1,77.9,0
	c9.7-0.1,17.7-4.3,23.9-11.8c0.5-0.5,0.9-1.2,1.7-1.3c-3.7,5.7-9,9.3-15.2,11.8c-3.7,1.4-7.7,2.1-11.6,2.1c-25.2,0-50.3,0.1-75.5,0
	c-10.5,0-19.1-4.6-25.8-12.7C69.2,355.7,69,355.3,68.8,355z"/>
<path class="st2" d="M71,237.8c0,1.9-1.7,2.7-2.6,4.1c-3.4,5.3-5.3,11.4-5.5,17.7c-0.6,24.3-0.1,48.6-0.3,72.9
	c0,7,0.9,13.8,4.8,19.8c0.5,0.8,1.7,1.4,1.4,2.7c-3.7-4.1-5.3-9.2-6.4-14.5c-0.3-1.9-0.5-3.8-0.5-5.7c0-25.2,0-50.4,0.1-75.6
	c0-8,3.2-15,8.4-21.1C70.6,238,70.8,237.9,71,237.8z"/>
<path class="st3" d="M203.5,258l0.4,0.1c0,3.4,0.1,6.7,0.1,10.1c0,22.3,0,44.6,0,66.9c0,0.8-0.1,1.6-0.1,2.4l-0.4,0.1
	C203.5,311,203.5,284.5,203.5,258z"/>
<path class="st1" d="M203.6,337.5l0.4-0.1c0,5-1.7,9.5-3.9,13.9c-0.5,1.3-1.3,2.4-2.3,3.4c0-1.6,1.2-2.7,1.9-4
	C201.7,346.5,203.1,342.1,203.6,337.5z"/>
<path class="st2" d="M73.4,235.4c-0.2,1-1,1.8-2,2C71.8,236.5,72.5,235.8,73.4,235.4z"/>
<path class="st1" d="M74.2,234.7l-0.3,0.3L74.2,234.7z"/>
<path class="st4" d="M95.8,268.2c-0.1-3.3,1.9-6.3,5-7.5c3.4-1.5,6.6-0.7,9.3,1.9c5.2,5.1,10.3,10.3,15.4,15.4
	c2.1,2.1,4.3,4.1,6.3,6.3c1,1.1,1.6,1,2.6,0c7.1-7.1,14.2-14.2,21.3-21.4c3.7-3.7,8.4-4,11.9-0.9c3.4,2.9,3.8,8,0.9,11.4
	c-0.2,0.2-0.4,0.4-0.6,0.6c-7.1,7.2-14.3,14.3-21.4,21.5c-4,4-8.1,8-12.1,12.1c-0.9,0.9-1.4,1.2-2.5,0.1
	c-11.1-11.2-22.3-22.4-33.5-33.5C96.7,272.7,95.8,270.5,95.8,268.2z"/>
<path class="st5" d="M112.4,327.9c-1.6,5.7-5.1,8.3-10.1,7.3c-3.5-0.7-6.1-3.6-6.3-7.2c-0.1-16.5,0-32.9,0-49.4
	c0-0.2,0.1-0.3,0.2-0.5c1,0.7,2,1.5,2.7,2.5c4.2,4.1,8.2,8.2,12.3,12.3c0.4,0.4,0.7,1,1.4,1c-0.1,0.1-0.1,0.2,0,0.3
	c-0.2,0.1-0.3,0.4-0.1,0.6C112.2,305.9,112.2,316.9,112.4,327.9z"/>
<path class="st6" d="M170.1,278.3c0.4,0.4,0.2,0.9,0.2,1.3c0,15.9,0,31.7,0,47.6c0.1,3.6-2.2,6.9-5.7,7.9c-3.6,1.1-7.5-0.4-9.5-3.6
	c-0.9-1.4-1.3-3.1-1.2-4.8c0-10.5,0-20.9,0-31.3c-0.1-0.8,0.2-1.6,0.8-2.1c4.9-4.8,9.7-9.7,14.6-14.6
	C169.5,278.5,169.7,278.2,170.1,278.3z"/>
<path class="st3" d="M112.4,327.9c-0.2-11-0.2-22,0-33l0.1-0.6c-0.1-0.1-0.1-0.2,0-0.3c0.4,0.4,0.6,0.9,0.5,1.4v34.1L112.4,327.9z"
	/>
<path class="st0" d="M112.5,294.3l-0.1,0.6C112.3,294.7,112.3,294.4,112.5,294.3z"/>
</svg>
